<mxfile host="65bd71144e">
    <diagram name="Page-1" id="xAf8wqXrV1-wY7H82dRq">
        <mxGraphModel dx="832" dy="671" grid="1" gridSize="10" guides="1" tooltips="1" connect="1" arrows="1" fold="1" page="1" pageScale="1" pageWidth="827" pageHeight="1169" math="0" shadow="0">
            <root>
                <mxCell id="0"/>
                <mxCell id="1" parent="0"/>
                <mxCell id="LqPHb6oJva6mk8Asy9aR-13" value="" style="rounded=0;whiteSpace=wrap;html=1;" parent="1" vertex="1">
                    <mxGeometry x="40" y="280" width="760" height="240" as="geometry"/>
                </mxCell>
                <mxCell id="LqPHb6oJva6mk8Asy9aR-10" value="Splunk Cloud" style="rounded=0;whiteSpace=wrap;html=1;verticalAlign=bottom;" parent="1" vertex="1">
                    <mxGeometry x="600" y="320" width="160" height="160" as="geometry"/>
                </mxCell>
                <mxCell id="LqPHb6oJva6mk8Asy9aR-9" value="Red Hat OpenShift" style="rounded=0;whiteSpace=wrap;html=1;verticalAlign=bottom;" parent="1" vertex="1">
                    <mxGeometry x="80" y="320" width="440" height="160" as="geometry"/>
                </mxCell>
                <mxCell id="LqPHb6oJva6mk8Asy9aR-1" value="MQ QMgr&lt;br&gt;pod" style="rounded=1;whiteSpace=wrap;html=1;" parent="1" vertex="1">
                    <mxGeometry x="120" y="360" width="80" height="80" as="geometry"/>
                </mxCell>
                <mxCell id="LqPHb6oJva6mk8Asy9aR-8" value="MQ PCF to inquire&lt;br&gt;cur Qdepth and max Qdepth" style="edgeStyle=orthogonalEdgeStyle;rounded=0;orthogonalLoop=1;jettySize=auto;html=1;entryX=1;entryY=0.5;entryDx=0;entryDy=0;" parent="1" source="LqPHb6oJva6mk8Asy9aR-2" target="LqPHb6oJva6mk8Asy9aR-1" edge="1">
                    <mxGeometry relative="1" as="geometry">
                        <mxPoint as="offset"/>
                    </mxGeometry>
                </mxCell>
                <mxCell id="LqPHb6oJva6mk8Asy9aR-12" value="HTTPS&lt;br&gt;Send log messages" style="edgeStyle=orthogonalEdgeStyle;rounded=0;orthogonalLoop=1;jettySize=auto;html=1;entryX=0;entryY=0.5;entryDx=0;entryDy=0;" parent="1" source="LqPHb6oJva6mk8Asy9aR-2" target="LqPHb6oJva6mk8Asy9aR-11" edge="1">
                    <mxGeometry relative="1" as="geometry"/>
                </mxCell>
                <mxCell id="LqPHb6oJva6mk8Asy9aR-2" value="MQ Monitoring pod" style="rounded=1;whiteSpace=wrap;html=1;fillColor=#dae8fc;strokeColor=#6c8ebf;" parent="1" vertex="1">
                    <mxGeometry x="400" y="360" width="80" height="80" as="geometry"/>
                </mxCell>
                <mxCell id="LqPHb6oJva6mk8Asy9aR-11" value="HTTP Event&lt;br&gt;Collector&lt;br&gt;(HEC)" style="rounded=1;whiteSpace=wrap;html=1;" parent="1" vertex="1">
                    <mxGeometry x="640" y="360" width="80" height="80" as="geometry"/>
                </mxCell>
            </root>
        </mxGraphModel>
    </diagram>
</mxfile>